<mxfile host="app.diagrams.net" modified="2024-05-08T12:32:01.835Z" agent="Mozilla/5.0 (Windows NT 10.0; Win64; x64) AppleWebKit/537.36 (KHTML, like Gecko) Chrome/124.0.0.0 Safari/537.36 Edg/124.0.0.0" version="24.3.1" etag="Ere_hoW8XZrYNM4I6rau" type="github">
  <diagram name="第 1 页" id="iUOvayJNFla-pqnQ5Y2Z">
    <mxGraphModel>
      <root>
        <mxCell id="0" />
        <mxCell id="1" parent="0" />
      </root>
    </mxGraphModel>
  </diagram>
</mxfile>
